<?xml version="1.0" standalone="no"?>
<!DOCTYPE svg PUBLIC "-//W3C//DTD SVG 20010904//EN"
 "http://www.w3.org/TR/2001/REC-SVG-20010904/DTD/svg10.dtd">
<svg version="1.0" xmlns="http://www.w3.org/2000/svg"
 width="626.000000pt" height="626.000000pt" viewBox="0 0 626.000000 626.000000"
 preserveAspectRatio="xMidYMid meet">

<g transform="translate(0.000000,626.000000) scale(0.100000,-0.100000)"
fill="#000000" stroke="none">
<path d="M2432 4478 c-11 -29 -70 -179 -130 -333 -183 -468 -559 -1426 -587
-1495 l-25 -64 37 36 c144 137 491 366 724 478 l45 22 120 330 c66 181 124
330 128 331 5 1 47 -104 94 -233 47 -129 87 -236 88 -238 1 -2 55 15 120 37
66 22 182 58 258 81 77 22 141 42 143 44 2 1 -22 65 -53 142 -31 76 -124 306
-206 509 -82 204 -152 378 -155 388 -5 16 -28 17 -293 17 l-289 0 -19 -52z"/>
<path d="M4493 4149 c-105 -40 -173 -136 -181 -254 -7 -125 55 -232 167 -287
66 -33 196 -32 261 1 135 69 197 212 156 356 -24 80 -108 166 -186 189 -71 21
-154 19 -217 -5z"/>
<path d="M4795 3463 c-898 -76 -1694 -278 -2290 -583 -429 -220 -765 -502
-977 -821 -53 -78 -144 -248 -167 -311 l-11 -28 320 0 319 0 21 47 c46 105
134 218 289 373 170 169 309 282 556 449 603 408 1328 727 1950 857 101 21 98
26 -10 17z"/>
<path d="M4875 3233 c-145 -32 -335 -81 -437 -114 l-128 -40 0 -677 0 -677
300 3 300 3 0 754 c0 415 -3 754 -7 754 -5 -1 -17 -3 -28 -6z"/>
<path d="M3585 2762 c-177 -91 -375 -205 -375 -216 0 -4 66 -190 147 -412
l147 -404 327 0 326 0 -194 503 c-107 276 -202 523 -211 550 -9 26 -21 47 -26
47 -6 -1 -70 -31 -141 -68z"/>
</g>
</svg>
